<svg id="crown-an" xmlns="http://www.w3.org/2000/svg" xmlns:xlink="http://www.w3.org/1999/xlink" viewBox="0 0 595.28 499.7">
    <style>
      @keyframes crown-shine {
        0% {
          transform: translateX(-370px);
        }
        25%, 100% {
          transform: translateX(370px);
        }
      }

      #crown-an #shine {
        animation: crown-shine 5s cubic-bezier(0.37, 0, 0.63, 1) both infinite;
      }

      @keyframes star-1 {
        0%, 25%, 65%, 100% {
          transform: scale(.7);
          opacity: 0;
        }
        29%, 61% {
          opacity: 1;
        }
        35%, 55% {
          transform: scale(1);
        }
        45% {
          transform: scale(.7);
        }
      }

      @keyframes star-2 {
        0%, 30%, 70%, 100% {
          transform: scale(.7);
          opacity: 0;
        }
        34%, 66% {
          opacity: 1;
        }
        40%, 60% {
          transform: scale(1);
        }
        50% {
          transform: scale(.7);
        }
      }

      @keyframes star-3 {
        0%, 35%, 75%, 100% {
          transform: scale(.7);
          opacity: 0;
        }
        39%, 71% {
          opacity: 1;
        }
        45%, 65% {
          transform: scale(1);
        }
        55% {
          transform: scale(.7);
        }
      }

      #crown-an #star-1 {
        transform-origin: 484.12px 405.01px;
        animation: star-1 5s ease-in-out both infinite;
      }

      #crown-an #star-2 {
        transform-origin: 142.24px 363.1px;
        animation: star-2 5s ease-in-out both infinite;
      }

      #crown-an #star-3 {
        transform-origin: 336.18px 201.69px;
        animation: star-3 5s ease-in-out both infinite;
      }
    </style>
    <defs>
      <mask id="crown-mask" x="63.54" y="-35.86" width="468.2" height="571.41" maskUnits="userSpaceOnUse">
        <polygon points="103.4 424.16 496.04 424.16 531.74 112.42 399.07 303.39 301.89 75.54 203.34 303.39 63.54 97.55 103.4 424.16" fill="#fff"/>
      </mask>
    </defs>
    <g>
      <path d="M103.4,449a24.79,24.79,0,0,1-24.61-21.79L38.93,100.55A24.79,24.79,0,0,1,84,83.62L198.5,252.14,279.14,65.7a24.79,24.79,0,0,1,22.75-15H302A24.8,24.8,0,0,1,324.7,65.81l79.59,186.62L511.38,98.28a24.79,24.79,0,0,1,45,17L520.67,427A24.79,24.79,0,0,1,496,449Z" fill="#22272d"/>
      <polygon points="103.4 424.16 496.04 424.16 531.74 112.42 399.07 303.39 301.89 75.54 203.34 303.39 63.54 97.55 103.4 424.16" fill="#fdcb53"/>
    </g>
    <g mask="url(#crown-mask)">
      <polygon id="shine" points="250.94 535.54 265.02 339.96 201.71 535.56 119.4 535.56 254.07 -35.86 381.75 -35.86 249.06 276.85 405.32 -35.86 475.87 -35.86 250.94 535.54" fill="#fbebaf"/>
    </g>
    <path id="star-1" d="M506.7,427.58,570,405,506.7,382.44l-22.57-63.27-22.57,63.27L398.29,405l63.27,22.57,22.57,63.27S505.66,430.48,506.7,427.58Z" fill="#fff" opacity="0"/>
    <path id="star-3" d="M358.76,224.26,422,201.69l-63.27-22.57-22.57-63.27s-21.54,60.37-22.57,63.27l-63.27,22.57,63.27,22.57,22.57,63.27S357.72,227.16,358.76,224.26Z" fill="#fff" opacity="0"/>
    <path id="star-2" d="M164.82,385.68l63.27-22.57-63.27-22.57-22.57-63.27s-21.54,60.37-22.57,63.27L56.41,363.11l63.27,22.57L142.25,449S163.78,388.58,164.82,385.68Z" fill="#fff" opacity="0"/>
  </svg>