<svg version="1.1" xmlns="http://www.w3.org/2000/svg" xmlns:xlink="http://www.w3.org/1999/xlink" x="0px" y="0px" viewBox="0 0 256 256" enable-background="new 0 0 256 256" xml:space="preserve">
  <g><g><g><path fill="#000000" d="M161.7,11.1c-3.7,1.4,5.6-7.7-97.5,94.8c-58.2,57.8-54.4,53.6-54,60.2c0.1,2.1,0.6,4,1.3,5.3c1.2,2.3,16,17.6,18.2,18.8c1.9,1,3.8,0.6,7.1-1.7c8.8-5.7,18-5.6,25.8,0.3c6.1,4.6,9.3,11.8,8.7,19.3c-0.3,4-1.5,7.4-4,10.9c-2.1,3.1-2.5,4.3-2.1,6.2c0.4,1.8,15.8,17.2,18.9,18.9c2.1,1.2,2.8,1.3,6.3,1.3c3.5,0,4.2-0.1,6.4-1.4c3-1.8,146.1-144.6,148-147.8c1.1-1.8,1.2-2.6,1.2-5.8c0-3-0.2-4.1-1.1-5.8c-1.2-2.3-16.1-17.7-18.2-18.8c-1.8-1-3.8-0.6-6.8,1.5c-6.8,4.5-14.8,5.1-22,1.7c-1.4-0.6-3.9-2.4-5.5-3.9c-7.8-7.4-9.2-18.9-3.3-28c2.2-3.4,2.6-5.3,1.7-7.2c-1.2-2.2-16.5-17-18.8-18.2C169.4,10.5,164.2,10.1,161.7,11.1z M167.5,20.2c0.6,0.3,3.7,3.2,7,6.5l6,6l-1.5,3c-4.3,8.9-4.1,19.4,0.6,28.5c2.5,4.9,8.4,10.6,13.5,13.1c5.3,2.6,8.5,3.4,14.1,3.4c5.3,0,9-0.8,13.7-3l3.1-1.5l5.8,5.8c6.4,6.3,7.3,7.6,6.7,9.3c-0.2,0.6-6.3,6.9-13.5,14.1c-10.2,10.2-13.2,12.9-13.7,12.6c-0.4-0.2-1.5-0.5-2.4-0.5c-3.3,0-5.5,3.7-4,6.5c0.5,0.9-4.3,5.8-55,56.5C109.4,219,92.1,236,91.2,236.2c-1.9,0.4-3.4-0.6-9.5-6.8l-5.7-5.7l1.4-2.8c2.3-4.6,3.4-9.3,3.4-14.6c0-5.5-0.8-8.9-3.3-13.8c-3.2-6.5-7.8-11.1-14.6-14.3c-4.9-2.4-8.3-3.1-13.6-3.1c-4.7,0-8.6,1-13.5,3.2l-3.6,1.7l-5.8-5.8c-6.3-6.2-7.3-7.7-6.9-9.6c0.2-0.9,16.4-17.3,55.9-56.5c44.1-43.9,55.7-55.2,56.4-54.9c0.4,0.2,1.5,0.4,2.4,0.5c2.3,0.3,4.6-1.8,4.6-4.2c0-0.9-0.2-2-0.4-2.5c-0.4-0.6,1.8-3,12.5-13.7c7.1-7.1,13.3-13.1,13.7-13.2C165.7,19.6,166.4,19.6,167.5,20.2z"/><path fill="#000000" d="M144.3,59.4c-1.5,1.6-1.7,3.4-0.7,5.4c0.7,1.3,6.2,6.9,8.1,8.1c1.8,1.2,3.8,0.9,5.5-0.6c1.2-1.1,1.4-1.7,1.4-3.3c0-1.9-0.2-2.2-4.5-6.5s-4.6-4.5-6.5-4.5C146,58,145.4,58.2,144.3,59.4z"/><path fill="#000000" d="M164.2,79.2c-1.5,1.5-1.8,3.3-0.9,5.2c0.7,1.5,6.9,7.7,8.3,8.4c3.3,1.8,6.8-0.3,6.8-4c0-1.9-0.2-2.2-4.5-6.5c-4.2-4.2-4.7-4.5-6.4-4.5C166,77.8,165.3,78.1,164.2,79.2z"/><path fill="#000000" d="M185.1,98.1c-2,1-3,4.1-2,6.1c0.7,1.5,6.9,7.7,8.3,8.4c3,1.6,6.4,0.1,7-3.2c0.4-1.9-0.6-3.4-5.2-7.8c-3.5-3.4-4.4-4-5.7-4C186.7,97.7,185.6,97.9,185.1,98.1z"/></g></g></g>
</svg>