<svg width="21" height="21" viewBox="0 0 21 21" fill="none" >
  <path fill-rule="evenodd" clip-rule="evenodd" d="M0.299273 1.39376C0.412029 1.16824 0.686249 1.07684 0.911761 1.18959L3.00002 2.23372C3.24594 2.35668 3.42335 2.58391 3.48299 2.85231L3.81294 4.33705H19.3801C20.2789 4.33705 20.9341 5.18819 20.7041 6.05708L18.9533 12.6713C18.9003 12.8715 18.7191 13.011 18.5119 13.011H5.74047L6.09555 14.6088H18.2837C18.5358 14.6088 18.7402 14.8132 18.7402 15.0653C18.7402 15.3174 18.5358 15.5218 18.2837 15.5218H5.72934C5.51537 15.5218 5.3301 15.3732 5.28369 15.1643L2.59169 3.05037L0.503436 2.00624C0.277924 1.89349 0.186517 1.61927 0.299273 1.39376ZM5.53758 12.0979H18.1605L19.8214 5.82343C19.8981 5.53381 19.6797 5.25009 19.3801 5.25009H4.01584L5.53758 12.0979Z" fill="currentColor"></path>
  <path fill-rule="evenodd" clip-rule="evenodd" d="M8.92521 17.1196C8.42095 17.1196 8.01216 17.5284 8.01216 18.0327C8.01216 18.537 8.42095 18.9457 8.92521 18.9457C9.42947 18.9457 9.83825 18.537 9.83825 18.0327C9.83825 17.5284 9.42947 17.1196 8.92521 17.1196ZM7.09912 18.0327C7.09912 17.0242 7.91669 16.2066 8.92521 16.2066C9.93373 16.2066 10.7513 17.0242 10.7513 18.0327C10.7513 19.0412 9.93373 19.8588 8.92521 19.8588C7.91669 19.8588 7.09912 19.0412 7.09912 18.0327Z" fill="currentColor"></path>
  <path fill-rule="evenodd" clip-rule="evenodd" d="M15.3163 17.1196C14.8121 17.1196 14.4033 17.5284 14.4033 18.0327C14.4033 18.537 14.8121 18.9457 15.3163 18.9457C15.8206 18.9457 16.2294 18.537 16.2294 18.0327C16.2294 17.5284 15.8206 17.1196 15.3163 17.1196ZM13.4902 18.0327C13.4902 17.0242 14.3078 16.2066 15.3163 16.2066C16.3248 16.2066 17.1424 17.0242 17.1424 18.0327C17.1424 19.0412 16.3248 19.8588 15.3163 19.8588C14.3078 19.8588 13.4902 19.0412 13.4902 18.0327Z" fill="currentColor"></path>
  <path fill-rule="evenodd" clip-rule="evenodd" d="M7.55566 7.53269C7.55566 7.28056 7.76006 7.07617 8.01219 7.07617H16.2296C16.4817 7.07617 16.6861 7.28056 16.6861 7.53269C16.6861 7.78482 16.4817 7.98921 16.2296 7.98921H8.01219C7.76006 7.98921 7.55566 7.78482 7.55566 7.53269Z" fill="currentColor"></path>
  <path fill-rule="evenodd" clip-rule="evenodd" d="M8.46875 9.81535C8.46875 9.56322 8.67314 9.35883 8.92527 9.35883H15.3166C15.5687 9.35883 15.7731 9.56322 15.7731 9.81535C15.7731 10.0675 15.5687 10.2719 15.3166 10.2719H8.92527C8.67314 10.2719 8.46875 10.0675 8.46875 9.81535Z" fill="currentColor"></path>
</svg>