<svg id="clouds-left" xmlns="http://www.w3.org/2000/svg" viewBox="-10 -20 692.65 360.79">
  <style>
    @keyframes cloud-left-big {
      from {
        transform: none;
      }
      to {
        transform: translate(-100px, 57.21px);
      }
    }


    @keyframes cloud-left-small {
      from {
        transform: none;
      }
      to {
        transform: translate(100px, -57.21px);
      }
    }


    #clouds-left #cloud-big {
      animation: cloud-left-big 13s -5s cubic-bezier(0.37, 0, 0.63, 1) both infinite alternate;
    }

    #clouds-left #cloud-small {
      animation: cloud-left-small 9s -15s cubic-bezier(0.37, 0, 0.63, 1) both infinite alternate;
    }
  </style>
  <g id="cloud-small">
    <path d="M397.21,117.37c-2.56-6.47,4-39.91,30.68-41,9.24-20.43,31.72-33.67,43.3-24.88,3.31,2.51,5.73,6.83,6.7,13.29,5.33-3.1,11-4.45,15.65-3.39,6.22,1.41,10.54,7.17,9.53,18.86-1.75,20.39-15.51,33.4-27.35,40.41s-77.65,44.43-79.6,45.43c-2.79,1.43-13,5.73-19.71-.4S375.53,128.35,397.21,117.37Z" fill="#f3f8ff"/>
    <path d="M471.19,51.49c3.31,2.51,5.73,6.83,6.7,13.29,5.33-3.1,11.44-4.47,16.29-3.23C490.42,58.73,483,52.1,471.19,51.49Z" fill="#afdbff"/>
    <path d="M397.21,117.37c-2.56-6.47,4-39.91,30.68-41l-17.56-9.09c-8.59.08-18,3.84-24.6,15.68s-6.42,25.85-6.42,25.85Z" fill="#afdbff"/>
    <path d="M376.41,165.69c-6.76-6.13-.88-37.34,20.8-48.32l-17.9-8.56c-21.35,9.68-25.69,41-19.69,47.54Z" fill="#cde7ff"/>
    <path d="M427.89,76.37l-17.56-9.09s10.36-22.68,28.16-27.06C448,38,461,41.84,471.19,51.49c-11.58-8.79-34.06,4.45-43.3,24.88" fill="#cde7ff"/>
  </g>
  <g id="cloud-big">
    <path d="M118.22,197c-4-10.24,6.25-63.14,48.53-64.85,14.62-32.31,50.18-53.26,68.49-39.35,5.24,4,9.07,10.79,10.59,21,8.44-4.89,17.43-7,24.76-5.36,9.84,2.24,16.66,11.34,15.08,29.83-2.77,32.25-24.54,52.83-43.27,63.91s-122.82,70.28-125.89,71.86c-4.42,2.27-20.5,9.07-31.18-.63S83.94,214.37,118.22,197Z" fill="#f3f8ff"/>
    <path d="M235.24,92.81c5.24,4,9.07,10.79,10.59,21,8.44-4.89,18.1-7.06,25.78-5.1C265.65,104.26,253.86,93.77,235.24,92.81Z" fill="#afdbff"/>
    <path d="M118.22,197c-4-10.24,6.25-63.14,48.53-64.85L139,117.78c-13.58.13-28.49,6.07-38.91,24.8s-10.16,40.89-10.16,40.89Z" fill="#afdbff"/>
    <path d="M85.33,273.43c-10.68-9.69-1.39-59.06,32.89-76.42L89.91,183.47c-33.77,15.3-40.62,64.9-31.13,75.19Z" fill="#cde7ff"/>
    <path d="M166.75,132.16,139,117.78S155.37,81.9,183.52,75c15.09-3.56,35.55,2.57,51.72,17.83-18.31-13.91-53.87,7-68.49,39.35" fill="#cde7ff"/>
  </g>
</svg>