<svg xmlns="http://www.w3.org/2000/svg" id="clouds-right" viewBox="0 -40 692.65 356.79">
  <style>
    @keyframes cloud-right-big {
      from {
        transform: none;
      }
      to {
        transform: translate(-100px, -57.21px);
      }
    }


    @keyframes cloud-right-small {
      from {
        transform: none;
      }
      to {
        transform: translate(100px, 57.21px);
      }
    }


    #clouds-right #cloud-big {
      animation: cloud-right-big 13s -2s cubic-bezier(0.37, 0, 0.63, 1) both infinite alternate;
    }

    #clouds-right #cloud-small {
      animation: cloud-right-small 9s -5s cubic-bezier(0.37, 0, 0.63, 1) both infinite alternate;
    }
  </style>
  <g>
    <g id="cloud-big">
      <path d="M314.62,145c4-10.24-6.25-63.14-48.53-64.85C251.48,47.85,215.92,26.9,197.6,40.81c-5.23,4-9.06,10.79-10.59,21-8.44-4.89-17.43-7-24.75-5.36-9.84,2.24-16.67,11.34-15.08,29.83,2.77,32.25,24.53,52.83,43.26,63.91s122.82,70.28,125.9,71.86c4.42,2.27,20.49,9.07,31.18-.63S348.9,162.37,314.62,145Z" fill="#f3f8ff"/>
      <path d="M197.6,40.81c-5.23,4-9.06,10.79-10.59,21-8.44-4.89-18.09-7.06-25.77-5.1C167.2,52.26,179,41.77,197.6,40.81Z" fill="#afdbff"/>
      <path d="M314.62,145c4-10.24-6.25-63.14-48.53-64.85l27.77-14.38c13.59.13,28.49,6.07,38.91,24.8s10.16,40.89,10.16,40.89Z" fill="#afdbff"/>
      <path d="M347.52,221.43c10.68-9.69,1.38-59.06-32.9-76.42l28.31-13.54c33.77,15.3,40.63,64.9,31.13,75.19Z" fill="#cde7ff"/>
      <path d="M266.09,80.16l27.77-14.38S277.48,29.9,249.33,23c-15.09-3.56-35.55,2.57-51.73,17.83,18.32-13.91,53.88,7,68.49,39.35" fill="#cde7ff"/>
    </g>
    <g id="cloud-small">
      <path d="M555.24,189.37c2.55-6.47-4-39.91-30.68-41-9.24-20.43-31.73-33.67-43.31-24.88-3.31,2.51-5.73,6.83-6.69,13.29-5.34-3.1-11-4.45-15.65-3.39-6.23,1.41-10.54,7.17-9.54,18.86,1.75,20.39,15.52,33.4,27.36,40.41s77.65,44.43,79.59,45.43c2.8,1.43,13,5.73,19.72-.4S576.91,200.35,555.24,189.37Z" fill="#f3f8ff"/>
      <path d="M481.25,123.49c-3.31,2.51-5.73,6.83-6.69,13.29-5.34-3.1-11.44-4.47-16.3-3.23C462,130.73,469.48,124.1,481.25,123.49Z" fill="#afdbff"/>
      <path d="M555.24,189.37c2.55-6.47-4-39.91-30.68-41l17.55-9.09c8.59.08,18,3.84,24.61,15.68s6.42,25.85,6.42,25.85Z" fill="#afdbff"/>
      <path d="M576,237.69c6.75-6.13.87-37.34-20.8-48.32l17.9-8.56c21.35,9.68,25.69,41,19.68,47.54Z" fill="#cde7ff"/>
      <path d="M524.56,148.37l17.55-9.09S531.76,116.6,514,112.22c-9.54-2.25-22.48,1.62-32.71,11.27,11.58-8.79,34.07,4.45,43.31,24.88" fill="#cde7ff"/>
    </g>
  </g>
</svg>