<svg width="60" height="60" viewBox="0 0 60 60" fill="none" xmlns="http://www.w3.org/2000/svg">
<rect width="60" height="60" rx="9" fill="#00C200"></rect>
<path d="M40.9084 21.7199C41.2656 21.7199 41.6229 21.732 41.974 21.7502C40.4967 13.9578 32.3895 8 22.6051 8C11.7793 8 3 15.302 3 24.3113C3 29.2217 5.63984 33.6477 9.7752 36.6387C9.94576 36.7591 10.0849 36.9188 10.1808 37.1042C10.2766 37.2897 10.3265 37.4955 10.3262 37.7043C10.3262 37.8496 10.2959 37.9828 10.2596 38.1221C9.92656 39.3512 9.39981 41.3189 9.37559 41.4098C9.3332 41.5672 9.27266 41.7246 9.27266 41.8881C9.27266 42.2453 9.56328 42.542 9.92656 42.542C10.0658 42.542 10.1809 42.4875 10.302 42.4209L14.5947 39.9445C14.9156 39.7568 15.2607 39.6418 15.6361 39.6418C15.8299 39.6418 16.0236 39.6721 16.2113 39.7266C18.2154 40.3018 20.377 40.6227 22.6111 40.6227C22.9744 40.6227 23.3316 40.6166 23.6889 40.5984C23.259 39.327 23.0289 37.9889 23.0289 36.6023C23.0289 28.3801 31.0332 21.7199 40.9084 21.7199ZM29.1441 16.4826C30.5852 16.4826 31.7598 17.6512 31.7598 19.0922C31.7598 20.5332 30.5912 21.7018 29.1441 21.7018C27.7031 21.7018 26.5285 20.5332 26.5285 19.0922C26.5285 17.6512 27.7031 16.4826 29.1441 16.4826ZM16.0721 21.7018C14.6311 21.7018 13.4564 20.5332 13.4564 19.0922C13.4564 17.6512 14.625 16.4826 16.0721 16.4826C17.5191 16.4826 18.6877 17.6512 18.6877 19.0922C18.6877 20.5332 17.5131 21.7018 16.0721 21.7018ZM51.601 46.865C55.0461 44.3705 57.2439 40.6893 57.2439 36.5902C57.2439 29.0824 49.9299 22.9975 40.9023 22.9975C31.8809 22.9975 24.5607 29.0824 24.5607 36.5902C24.5607 44.098 31.8748 50.183 40.9023 50.183C42.7672 50.183 44.5715 49.9166 46.2365 49.4383C46.3939 49.3898 46.5514 49.3656 46.7148 49.3656C47.0297 49.3656 47.3143 49.4625 47.5807 49.6139L51.159 51.6725C51.2619 51.733 51.3588 51.7754 51.4738 51.7754C51.5456 51.776 51.6168 51.7624 51.6833 51.7353C51.7498 51.7083 51.8103 51.6684 51.8613 51.618C51.9118 51.5669 51.9517 51.5064 51.9787 51.4399C52.0057 51.3734 52.0193 51.3022 52.0187 51.2305C52.0187 51.0973 51.9643 50.9641 51.934 50.8309C51.9158 50.7582 51.4738 49.1174 51.1953 48.0881C51.165 47.973 51.1408 47.858 51.1408 47.743C51.1469 47.3857 51.3285 47.0648 51.601 46.865ZM35.4652 34.4227C34.2604 34.4227 33.2855 33.4479 33.2855 32.249C33.2855 31.0502 34.2604 30.0754 35.4652 30.0754C36.6701 30.0754 37.6449 31.0502 37.6449 32.249C37.6449 33.4479 36.6641 34.4227 35.4652 34.4227ZM46.3576 34.4227C45.1527 34.4227 44.1779 33.4479 44.1779 32.249C44.1779 31.0502 45.1527 30.0754 46.3576 30.0754C47.5625 30.0754 48.5373 31.0502 48.5373 32.249C48.5344 32.8257 48.3037 33.3778 47.8953 33.785C47.487 34.1922 46.9343 34.4214 46.3576 34.4227Z" fill="white"></path>
</svg>