<svg id="heart-icon" class="unclicked" style="overflow: visible;" xmlns="http://www.w3.org/2000/svg" xmlns:xlink="http://www.w3.org/1999/xlink" viewBox="23.1401 23.1401 20 20">
	<path id="heart-fill" d="M32.7114,38.4768c-1.066-.8848-4.31-3.58-5.5083-4.9048a3.65,3.65,0,0,1,.0019-5.0737,3.5919,3.5919,0,0,1,5.0684,0l.85.85.8818-.85a3.5776,3.5776,0,0,1,5.0693.0019,3.6454,3.6454,0,0,1,.0039,5.0689,71.9578,71.9578,0,0,1-5.51,4.9072l-.4287.3564Z" fill="#ff2f7d"/>
	<path id="heart-outline" d="M32.7113,38.4768c-1.0659-.8848-4.31-3.58-5.5083-4.9048a3.6505,3.6505,0,0,1,.002-5.0737,3.5919,3.5919,0,0,1,5.0684,0l.85.85.8818-.85a3.5776,3.5776,0,0,1,5.0693.0019,3.6454,3.6454,0,0,1,.0039,5.0689,71.9578,71.9578,0,0,1-5.51,4.9072l-.4287.3564Z" fill="none" stroke="#b41f57" stroke-linejoin="round" stroke-width="1.4"/>
</svg>
