<svg xmlns="http://www.w3.org/2000/svg" id="heart-pulse-an" viewBox="0 0 25 25">
  <style>
    @keyframes heart-bg-pulse {
      0% {
        transform: none;
        opacity: .5;
      }
      25% {
        opacity: .5;
      }
      50%, 100% {
        transform: scale(1.5);
        opacity: 0;
      }
    }

    #heart-pulse-an #heart-bg-pulse {
      transform-origin: 12.5px 12.5px;
      animation: heart-bg-pulse 2s ease-in-out both infinite;
    }

    @keyframes heart-beat {
      0% {
        transform: scale(1.05);
      }

      90% {
        transform: scale(1);
      }

      100% {
        transform: scale(1.05);
      }
    }

    #heart-pulse-an #heart {
      transform-origin: 12.5px 12.5px;
      animation: heart-beat 1s ease-in-out both infinite;
    }
  </style>
  <path id="heart-bg-pulse" d="M19,13.4a73.68,73.68,0,0,1-5.58,5l-.43.35a.71.71,0,0,1-.9,0l-.43-.35c-1.07-.9-4.34-3.61-5.58-5a4.35,4.35,0,0,1,0-6,4.3,4.3,0,0,1,6.06,0l.36.37.39-.38a4.25,4.25,0,0,1,3-1.24,4.19,4.19,0,0,1,3,1.26A4.34,4.34,0,0,1,19,13.4Z" fill="#ff2f7d"/>
  <path id="heart" d="M12.07,17.84C11,17,7.76,14.26,6.56,12.93a3.66,3.66,0,0,1,0-5.07A3.56,3.56,0,0,1,9.1,6.81a3.52,3.52,0,0,1,2.53,1.05l.85.85.89-.85a3.57,3.57,0,0,1,5.06,0,3.65,3.65,0,0,1,0,5.07c-1.06,1.17-3.66,3.36-5.51,4.91l-.43.35Z" fill="#ff2f7d" stroke="#b41f57" stroke-linejoin="round" stroke-width="1.4"/>
</svg>