<svg width="30px" height="30px" viewBox="0 0 28 29" fill="none" >
  <path fill-rule="evenodd" clip-rule="evenodd" d="M12.4828 1.35758C12.8974 0.979021 13.4385 0.769104 14 0.769104C14.5615 0.769104 15.1026 0.979021 15.5172 1.35758C15.5177 1.35806 15.5182 1.35854 15.5187 1.35901L26.766 11.5799C26.7713 11.5848 26.7766 11.5897 26.7818 11.5946C27.0041 11.8046 27.1822 12.0569 27.3055 12.3367C27.4288 12.6165 27.4949 12.9182 27.4999 13.224C27.4999 13.228 27.5 13.232 27.5 13.236C27.5 13.2381 27.5 13.2401 27.5 13.2422V26.25C27.5 26.8467 27.2629 27.419 26.841 27.841C26.419 28.2629 25.8467 28.5 25.25 28.5H18.5C17.9033 28.5 17.331 28.2629 16.909 27.841C16.4871 27.419 16.25 26.8467 16.25 26.25V19.5L11.75 19.5V26.25C11.75 26.8467 11.5129 27.419 11.091 27.841C10.669 28.2629 10.0967 28.5 9.5 28.5H2.75C2.15326 28.5 1.58097 28.2629 1.15901 27.841C0.737053 27.419 0.5 26.8467 0.5 26.25V13.2422C0.5 13.2361 0.500049 13.2301 0.500147 13.224C0.505094 12.9182 0.57117 12.6166 0.694485 12.3367C0.8178 12.0569 0.99586 11.8046 1.21818 11.5946C1.22342 11.5897 1.2287 11.5848 1.23402 11.5799L12.4812 1.35901C12.4818 1.35854 12.4823 1.35806 12.4828 1.35758ZM2.76066 13.2329L13.9972 3.02163L14 3.0191L14.0028 3.02163L25.2393 13.2329C25.2423 13.2362 25.2448 13.24 25.2466 13.2441C25.2484 13.2483 25.2496 13.2529 25.25 13.2575V26.25H18.5V19.5C18.5 18.9033 18.2629 18.331 17.841 17.909C17.419 17.487 16.8467 17.25 16.25 17.25H11.75C11.1533 17.25 10.581 17.487 10.159 17.909C9.73705 18.331 9.5 18.9033 9.5 19.5V26.25H2.75V13.2575C2.75039 13.2529 2.75155 13.2483 2.75343 13.2441C2.75523 13.24 2.75768 13.2362 2.76066 13.2329Z" fill="currentColor"></path>
</svg>