<svg width="44" height="37" viewBox="0 0 44 37" fill="none" >
<path d="M0 3.5C0 1.567 1.7237 0 3.85 0H40.15C42.2763 0 44 1.567 44 3.5C44 5.433 42.2763 7 40.15 7H3.85C1.7237 7 0 5.433 0 3.5Z" fill="#222222"></path>
<path d="M0 18.5C0 16.567 1.7237 15 3.85 15H40.15C42.2763 15 44 16.567 44 18.5C44 20.433 42.2763 22 40.15 22H3.85C1.7237 22 0 20.433 0 18.5Z" fill="#222222"></path>
<path d="M0 33.5C0 31.567 1.7237 30 3.85 30H40.15C42.2763 30 44 31.567 44 33.5C44 35.433 42.2763 37 40.15 37H3.85C1.7237 37 0 35.433 0 33.5Z" fill="#222222"></path>
</svg>