<svg width="60" height="60" viewBox="0 0 60 60" fill="none" xmlns="http://www.w3.org/2000/svg">
  <rect width="60" height="60" rx="9" fill="url(#paint0_linear_131_2856)"/>
  <path d="M25.5904 28.1889H12.5984C11.1646 28.1889 10 27.0241 10 25.5905V12.5984C10.0447 11.2094 11.2094 10.0447 12.6431 10.0447H25.6351C27.0689 10.0447 28.2335 11.2094 28.2335 12.6431V25.6351C28.1888 27.0238 27.0238 28.1889 25.5904 28.1889ZM13.0912 25.1873H25.1872V13.0912H13.0912V25.1873Z" fill="white"/>
  <path d="M16.0928 16.0928H22.1409V22.1409H16.0928V16.0928Z" fill="white"/>
  <path d="M25.5904 50.3648H12.5984C11.2094 50.3648 10.0447 49.2001 10.0447 47.7664V34.7744C10.0447 33.3407 11.2094 32.176 12.6431 32.176H25.6351C27.0688 32.176 28.2335 33.3407 28.2335 34.7744V47.7664C28.1888 49.2002 27.0238 50.3648 25.5904 50.3648H25.5904ZM13.0912 47.3186H25.1872V35.2226H13.0912V47.3186Z" fill="white"/>
  <path d="M16.0928 38.2688H22.1409V44.317H16.0928V38.2688Z" fill="white"/>
  <path d="M38.2688 38.2688H44.317V44.317H38.2688V38.2688Z" fill="white"/>
  <path d="M32.2207 32.2208H38.2689V38.269H32.2207V32.2208Z" fill="white"/>
  <path d="M44.3169 32.2208H50.3651V38.269H44.3169V32.2208Z" fill="white"/>
  <path d="M44.3169 44.3168H50.3651V50.3649H44.3169V44.3168Z" fill="white"/>
  <path d="M32.2207 44.3168H38.2689V50.3649H32.2207V44.3168Z" fill="white"/>
  <path d="M47.7664 28.1888H34.7744C33.3407 28.1888 32.176 27.0241 32.176 25.5904V12.5984C32.176 11.1646 33.3407 10 34.7744 10H47.7664C49.2002 10 50.3648 11.1647 50.3648 12.5984V25.5904C50.3648 27.0239 49.2001 28.1888 47.7664 28.1888ZM35.2224 25.1872H47.3184V13.0912H35.2224V25.1872Z" fill="white"/>
  <path d="M38.2688 16.0928H44.317V22.1409H38.2688V16.0928Z" fill="white"/>
  <defs>
    <linearGradient id="paint0_linear_131_2856" x1="60" y1="29.3023" x2="-2.9916e-07" y2="29.3023" gradientUnits="userSpaceOnUse">
      <stop stop-color="#FF6009"/>
      <stop offset="1" stop-color="#FF8340"/>
    </linearGradient>
  </defs>
</svg>
