<svg width="60" height="60" viewBox="0 0 60 60" fill="none" xmlns="http://www.w3.org/2000/svg">
  <rect width="60" height="60" rx="9" fill="#00B8ED"/>
  <path d="M51 18.0184C49.5022 18.6889 47.9134 19.1291 46.2866 19.3242C47.9811 18.2979 49.2822 16.6727 49.8948 14.7362C48.284 15.7022 46.5216 16.3828 44.6838 16.7486C43.1867 15.137 41.0541 14.1298 38.6936 14.1298C34.1614 14.1298 30.4869 17.8428 30.4869 22.4224C30.4869 23.0724 30.5595 23.7053 30.6994 24.3124C23.8791 23.9664 17.8322 20.665 13.7845 15.6478C13.0783 16.8725 12.6736 18.2972 12.6736 19.8168C12.6736 22.694 14.1225 25.2321 16.3244 26.7193C15.0212 26.6781 13.7466 26.3224 12.6072 25.682C12.6067 25.7167 12.6067 25.7514 12.6067 25.7863C12.6067 29.8043 15.4355 33.1561 19.1895 33.9179C17.9811 34.25 16.7135 34.2986 15.4836 34.06C16.5278 37.3546 19.5586 39.7521 23.1495 39.8192C20.3409 42.0433 16.8023 43.3692 12.9577 43.3692C12.2952 43.3692 11.642 43.3299 11 43.2533C14.6317 45.6062 18.9453 46.9791 23.5797 46.9791C38.6745 46.9791 46.9287 34.3426 46.9287 23.3841C46.9287 23.0244 46.9209 22.6668 46.905 22.3112C48.5116 21.1376 49.8983 19.6839 51 18.0184Z" fill="white"/>
</svg>
