<?xml version="1.0" standalone="no"?>
<!DOCTYPE svg PUBLIC "-//W3C//DTD SVG 20010904//EN"
 "http://www.w3.org/TR/2001/REC-SVG-20010904/DTD/svg10.dtd">
<svg version="1.0" 
 width="192.000000pt" height="192.000000pt" viewBox="0 0 192.000000 192.000000"
 preserveAspectRatio="xMidYMid meet">
<metadata>
Created by potrace 1.14, written by Peter Selinger 2001-2017
</metadata>
<g transform="translate(0.000000,192.000000) scale(0.100000,-0.100000)"
fill="#000000" stroke="none">
<path d="M274 1899 c-120 -41 -223 -149 -259 -271 -14 -49 -15 -130 -13 -689
l3 -634 25 -55 c28 -63 29 -65 90 -129 28 -30 72 -61 115 -82 l70 -34 655 0
655 0 67 32 c76 35 155 108 188 172 51 100 50 92 47 771 l-2 635 -25 55 c-28
63 -29 65 -90 129 -27 30 -72 61 -115 82 l-70 34 -640 2 c-625 2 -641 2 -701
-18z"/>
</g>
</svg>
