<svg id="stars-filler" style="overflow: visible;" xmlns="http://www.w3.org/2000/svg" viewBox="0 0 88.36 84.38">
  <style>
    @keyframes sf-move-up {
      70%, 100% {
        transform: translateY(-20px);
      }
    }

    @keyframes sf-rotate {
      70%, 100% {
        transform: none;
      }
    }

    @keyframes sf-fade {
      0%, 70%, 100% {
        opacity: 0;
      }
      20%, 50% {
        opacity: 1;
      }
    }

    #star-1 {
      transform: rotate(-720deg);
    }
    #star-2 {
      transform: rotate(720deg);
    }
    #star-3 {
      transform: rotate(-720deg);
    }
    #star-4 {
      transform: rotate(720deg);
    }
    #star-5 {
      transform: rotate(-720deg);
    }
    #star-6 {
      transform: rotate(720deg);
    }
    #star-7 {
      transform: rotate(-720deg);
    }
    #star-8 {
      transform: rotate(720deg);
    }
  </style>
  <g id="star-1-outer" style="animation: 5s ease-in-out 0s infinite normal both running sf-move-up;">
    <path id="star-1" d="M20.64,73.67l2.57.89a.07.07,0,0,1,0,.14l-2.57.89s0,0,0,0l-.89,2.57a.08.08,0,0,1-.14,0l-.89-2.57a.08.08,0,0,0-.05,0l-2.57-.89a.07.07,0,0,1,0-.14l2.57-.89a.12.12,0,0,0,.05,0l.89-2.57a.08.08,0,0,1,.14,0l.89,2.57A.07.07,0,0,0,20.64,73.67Z" fill="#fffcca" stroke="#ffd195" stroke-miterlimit="10" stroke-width="0.21" style="transform-origin: 19.655px 74.63px; animation: 5s ease-in-out 0s infinite normal both running sf-rotate, 5s ease-in-out 0s infinite normal both running sf-fade;"></path>
  </g>
  <g id="star-2-outer" style="animation: 5s ease-in-out -0.6s infinite normal both running sf-move-up;">
    <path id="star-2" d="M82.45,46l3.27,1.13a.1.1,0,0,1,0,.18l-3.27,1.13a.12.12,0,0,0-.06.06l-1.13,3.27a.09.09,0,0,1-.17,0L80,48.48s0,0,0-.06l-3.27-1.13a.1.1,0,0,1,0-.18L79.9,46s0,0,0-.06l1.14-3.26a.09.09,0,0,1,.17,0l1.13,3.26A.12.12,0,0,0,82.45,46Z" fill="#fffcca" stroke="#ffd195" stroke-miterlimit="10" stroke-width="0.21" style="transform-origin: 81.225px 47.225px; animation: 5s ease-in-out -0.6s infinite normal both running sf-rotate, 5s ease-in-out -0.6s infinite normal both running sf-fade;"></path>
  </g>
  <g id="star-3-outer" style="animation: 5s ease-in-out -1.2s infinite normal both running sf-move-up;">
    <path id="star-3" d="M71.59,23.55l3,1.05a.08.08,0,0,1,0,.16l-3,1a.12.12,0,0,0,0,.05l-1.05,3a.08.08,0,0,1-.16,0l-1-3,0-.05-3-1a.08.08,0,0,1,0-.16l3-1.05,0-.05,1-3a.08.08,0,0,1,.16,0l1.05,3A.12.12,0,0,0,71.59,23.55Z" fill="#fffcca" stroke="#ffd195" stroke-miterlimit="10" stroke-width="0.21" style="transform-origin: 70.485px 24.655px; animation: 5s ease-in-out -1.2s infinite normal both running sf-rotate, 5s ease-in-out -1.2s infinite normal both running sf-fade;"></path>
  </g>
  <g id="star-4-outer" style="animation: 5s ease-in-out -1.8s infinite normal both running sf-move-up;">
    <path id="star-4" d="M10.27,45.92l3.42,1.19a.1.1,0,0,1,0,.19l-3.42,1.18a.09.09,0,0,0-.06.06L9,52a.1.1,0,0,1-.19,0L7.65,48.54a.09.09,0,0,0-.06-.06L4.17,47.3a.1.1,0,0,1,0-.19l3.42-1.19a.09.09,0,0,0,.06-.06l1.18-3.42a.1.1,0,0,1,.19,0l1.19,3.42A.09.09,0,0,0,10.27,45.92Z" fill="#fffcca" stroke="#ffd195" stroke-miterlimit="10" stroke-width="0.21" style="transform-origin: 8.93px 47.22px; animation: 5s ease-in-out -1.8s infinite normal both running sf-rotate, 5s ease-in-out -1.8s infinite normal both running sf-fade;"></path>
  </g>
  <g id="star-5-outer" style="animation: 5s ease-in-out -2.4s infinite normal both running sf-move-up;">
    <path id="star-5" d="M45.59,81.15l1.76.61a.05.05,0,0,1,0,.1l-1.76.61,0,0-.61,1.77a0,0,0,0,1-.09,0l-.61-1.77,0,0-1.77-.61a.06.06,0,0,1,0-.1l1.77-.61,0,0,.61-1.76a0,0,0,0,1,.09,0l.61,1.76S45.57,81.15,45.59,81.15Z" fill="#fffcca" stroke="#ffd195" stroke-miterlimit="10" stroke-width="0.21" style="transform-origin: 44.9416px 81.815px; animation: 5s ease-in-out -2.4s infinite normal both running sf-rotate, 5s ease-in-out -2.4s infinite normal both running sf-fade;"></path>
  </g>
  <g id="star-6-outer" style="animation: 5s ease-in-out -3s infinite normal both running sf-move-up;">
    <path id="star-6" d="M19.79,22.81l2.1.72a.07.07,0,0,1,0,.12l-2.1.72a.08.08,0,0,0,0,0L19,26.51a.06.06,0,0,1-.12,0l-.72-2.1a.08.08,0,0,0,0,0l-2.1-.72a.07.07,0,0,1,0-.12l2.1-.72a.08.08,0,0,0,0,0l.72-2.1a.07.07,0,0,1,.12,0l.72,2.1A.08.08,0,0,0,19.79,22.81Z" fill="#fffcca" stroke="#ffd195" stroke-miterlimit="10" stroke-width="0.21" style="transform-origin: 18.975px 23.643px; animation: 5s ease-in-out -3s infinite normal both running sf-rotate, 5s ease-in-out -3s infinite normal both running sf-fade;"></path>
  </g>
  <g id="star-7-outer" style="animation: 5s ease-in-out -3.6s infinite normal both running sf-move-up;">
    <path id="star-7" d="M69.16,73.32l3.51,1.21a.11.11,0,0,1,0,.2l-3.51,1.21a.09.09,0,0,0-.06.06l-1.22,3.51a.1.1,0,0,1-.19,0L66.47,76a.09.09,0,0,0-.06-.06L62.9,74.73a.11.11,0,0,1,0-.2l3.51-1.21a.11.11,0,0,0,.06-.07l1.22-3.51a.1.1,0,0,1,.19,0l1.22,3.51A.11.11,0,0,0,69.16,73.32Z" fill="#fffcca" stroke="#ffd195" stroke-miterlimit="10" stroke-width="0.21" style="transform-origin: 67.785px 74.625px; animation: 5s ease-in-out -3.6s infinite normal both running sf-rotate, 5s ease-in-out -3.6s infinite normal both running sf-fade;"></path>
  </g>
</svg>